<mxfile host="app.diagrams.net" modified="2022-04-30T21:07:44.226Z" agent="5.0 (Windows NT 10.0; Win64; x64) AppleWebKit/537.36 (KHTML, like Gecko) Chrome/100.0.4896.127 Safari/537.36" etag="y5h0bxevUW8RLc8R955m" version="17.5.0" type="github">
  <diagram id="FhHGDVnk2PsyuQ010k1i" name="Page-1">
    <mxGraphModel dx="627" dy="739" grid="1" gridSize="10" guides="1" tooltips="1" connect="1" arrows="1" fold="1" page="1" pageScale="1" pageWidth="850" pageHeight="1100" math="0" shadow="0">
      <root>
        <mxCell id="0" />
        <mxCell id="1" parent="0" />
        <mxCell id="GISoZ3fKF0Cg9-W5x7Zx-1" value="&lt;font style=&quot;font-size: 40px&quot; color=&quot;#2300d4&quot;&gt;MASURA&amp;nbsp;&lt;br&gt;PASULUI&lt;br&gt;si a TALPEI&lt;br&gt;&lt;/font&gt;" style="text;html=1;align=center;verticalAlign=middle;resizable=0;points=[];autosize=1;strokeColor=none;fillColor=none;" vertex="1" parent="1">
          <mxGeometry x="210" y="160" width="220" height="80" as="geometry" />
        </mxCell>
        <mxCell id="GISoZ3fKF0Cg9-W5x7Zx-2" value="" style="endArrow=none;html=1;rounded=0;fontSize=40;fontColor=#2300D4;strokeColor=#2300D4;strokeWidth=2;" edge="1" parent="1">
          <mxGeometry width="50" height="50" relative="1" as="geometry">
            <mxPoint x="290" y="270" as="sourcePoint" />
            <mxPoint x="430" y="270" as="targetPoint" />
          </mxGeometry>
        </mxCell>
        <mxCell id="GISoZ3fKF0Cg9-W5x7Zx-3" value="" style="endArrow=none;html=1;rounded=0;fontSize=40;fontColor=#2300D4;strokeColor=#2300D4;strokeWidth=2;" edge="1" parent="1">
          <mxGeometry width="50" height="50" relative="1" as="geometry">
            <mxPoint x="225" y="120" as="sourcePoint" />
            <mxPoint x="415" y="120" as="targetPoint" />
          </mxGeometry>
        </mxCell>
      </root>
    </mxGraphModel>
  </diagram>
</mxfile>
